<svg width="377" height="164" viewBox="0 0 377 164" fill="none" xmlns="http://www.w3.org/2000/svg">
<path d="M358.809 24.4237H332.94L333.641 21.1232H359.51L358.809 24.4237ZM360.581 12.7619L357.97 16.1253C354.582 15.4338 349.918 12.7305 349.18 8.64418C346.737 12.7305 341.124 15.4023 337.307 16.1253C336.904 14.9937 336.463 13.8935 336.093 12.7619C340.905 12.1961 346.911 8.73848 348 3.61487L348.354 1.94891H352.917L352.563 3.61487C351.474 8.73848 355.951 12.1647 360.581 12.7619Z" fill="#8B8B8B"/>
<path d="M333.146 1.19446C332.533 4.68354 331.167 9.90146 329.851 12.919L325.836 12.6047C326.255 11.6931 326.624 10.5616 326.987 9.46139L311.364 10.0901L311.514 6.66384L327.789 6.4438C327.988 5.65797 328.089 5.02931 328.196 4.52638H313.028L313.737 1.19446H333.146ZM332.461 17.5712H306.592L307.28 14.3335H316.921L317.643 10.9388H321.884L321.163 14.3335H333.149L332.461 17.5712ZM327.729 27.284H307.709L309.48 18.9542H313.754L312.671 24.0464H328.418L327.729 27.284Z" fill="#8B8B8B"/>
<path d="M300.349 28.007H296.108L302.061 1.71661e-05H306.303L300.349 28.007ZM280.761 11.9132C282.011 6.03519 285.708 1.79171 290.4 1.79171C295.156 1.79171 297.05 6.03519 295.801 11.9132C294.578 17.6655 290.874 21.9404 286.118 21.9404C281.426 21.9404 279.532 17.6969 280.761 11.9132ZM291.816 11.9132C292.725 7.63829 291.675 5.4694 289.619 5.4694C287.69 5.4694 285.719 7.63829 284.81 11.9132C283.915 16.1253 284.958 18.3256 286.886 18.3256C288.943 18.3256 290.921 16.1253 291.816 11.9132Z" fill="#8B8B8B"/>
<path d="M277.212 0L274.967 10.5616H278.952L278.23 13.9563H274.246L271.259 28.007H267.017L272.97 0H277.212ZM252.281 11.9132C253.531 6.03518 257.293 1.79169 261.985 1.79169C266.709 1.79169 268.635 6.03518 267.385 11.9132C266.162 17.6655 262.426 21.9404 257.702 21.9404C253.01 21.9404 251.052 17.6969 252.281 11.9132ZM263.368 11.9132C264.277 7.63827 263.26 5.46938 261.203 5.46938C259.243 5.46938 257.303 7.63827 256.395 11.9132C255.5 16.1252 256.51 18.3256 258.47 18.3256C260.527 18.3256 262.473 16.1252 263.368 11.9132Z" fill="#8B8B8B"/>
<path d="M336.975 105.004C328.202 105.004 320.134 102.957 316 100.816V90.3011C321.345 92.9997 329.008 94.4886 335.664 94.4886C344.739 94.4886 349.983 91.2316 349.983 85.4622C349.983 79.3205 344.034 77.3664 337.176 75.4122C324.874 71.8761 316.706 67.5955 316.706 55.6844C316.706 42.0983 329.109 38.0039 341.613 38.0039C348.672 38.0039 355.025 39.3066 359.563 40.7955V51.2178C353.815 49.4497 348.874 48.4261 342.924 48.4261C335.462 48.4261 330.723 50.6594 330.723 55.4983C330.723 60.3372 335.16 62.0122 343.328 64.6178C354.622 67.9678 364 72.0622 364 84.9039C364 99.6997 351.294 105.004 336.975 105.004Z" fill="#037BE1"/>
<path d="M245 104.004V39.0039H261.045L290.244 86.0824V39.0039H303V104.004H287.553L257.756 55.7182V104.004H245Z" fill="#037BE1"/>
<path d="M198.45 105.004C177.657 105.004 165 91.6039 165 71.5039C165 51.3108 177.657 38.0039 198.45 38.0039C219.343 38.0039 232 51.3108 232 71.5039C232 91.6039 219.343 105.004 198.45 105.004ZM179.063 71.5039C179.063 85.183 186.563 94.1701 198.45 94.6491C210.504 94.6491 217.937 85.183 217.937 71.5039C217.5 57.6491 210.504 49.2636 198.45 49.2636C186.496 49.2636 179.063 57.7316 179.063 71.5039Z" fill="#037BE1"/>
<mask id="mask0_5599_17951" style="mask-type:alpha" maskUnits="userSpaceOnUse" x="187" y="59" width="55" height="52">
<path d="M210.061 59.8371L241.548 78.9696L219.098 110.298L187.611 91.1652L210.061 59.8371Z" fill="url(#paint0_linear_5599_17951)"/>
</mask>
<g mask="url(#mask0_5599_17951)">
<path d="M198.323 105.323C177.421 105.323 164.698 91.9339 164.698 71.8495C164.698 51.6721 177.421 38.3755 198.323 38.3755C219.327 38.3755 231.829 51.6721 231.829 71.8495C231.829 91.9339 219.327 105.323 198.323 105.323ZM178.835 71.8495C178.835 85.518 186.307 93.9795 198.323 93.9795C210.441 93.9795 217.913 85.518 217.913 71.8495C217.913 58.0879 210.441 49.6265 198.323 49.6265C186.307 49.6265 178.835 58.0879 178.835 71.8495Z" fill="url(#paint1_linear_5599_17951)"/>
</g>
<g clip-path="url(#paint2_diamond_5599_17951_clip_path)" data-figma-skip-parse="true"><g transform="matrix(-0.103406 0.0247395 -0.0249648 -0.0884795 266.575 148.678)"><rect x="0" y="0" width="905.93" height="748.398" fill="url(#paint2_diamond_5599_17951)" opacity="1" shape-rendering="crispEdges"/><rect x="0" y="0" width="905.93" height="748.398" transform="scale(1 -1)" fill="url(#paint2_diamond_5599_17951)" opacity="1" shape-rendering="crispEdges"/><rect x="0" y="0" width="905.93" height="748.398" transform="scale(-1 1)" fill="url(#paint2_diamond_5599_17951)" opacity="1" shape-rendering="crispEdges"/><rect x="0" y="0" width="905.93" height="748.398" transform="scale(-1)" fill="url(#paint2_diamond_5599_17951)" opacity="1" shape-rendering="crispEdges"/></g></g><path d="M170.979 155.149C184.877 161.548 194.245 162.984 203.03 162.984C219.008 163.507 233.332 153.581 233.332 137.779C233.332 121.977 213.773 104.56 202.463 101.213L183.5 102.149C188.747 104.761 219.008 122.5 219.008 138.171C219.008 143.936 211.551 150.969 202.463 150.969C192.677 150.969 176.33 146.614 170.979 143.917V155.149Z" data-figma-gradient-fill="{&#34;type&#34;:&#34;GRADIENT_DIAMOND&#34;,&#34;stops&#34;:[{&#34;color&#34;:{&#34;r&#34;:0.85490196943283081,&#34;g&#34;:0.32156863808631897,&#34;b&#34;:0.30588236451148987,&#34;a&#34;:1.0},&#34;position&#34;:0.091346152126789093},{&#34;color&#34;:{&#34;r&#34;:0.89803922176361084,&#34;g&#34;:0.34509804844856262,&#34;b&#34;:0.23921568691730499,&#34;a&#34;:1.0},&#34;position&#34;:0.21153846383094788},{&#34;color&#34;:{&#34;r&#34;:0.93943357467651367,&#34;g&#34;:0.41699346899986267,&#34;b&#34;:0.17385621368885040,&#34;a&#34;:1.0},&#34;position&#34;:0.44230768084526062},{&#34;color&#34;:{&#34;r&#34;:0.97254902124404907,&#34;g&#34;:0.47450980544090271,&#34;b&#34;:0.12156862765550613,&#34;a&#34;:1.0},&#34;position&#34;:0.48985883593559265},{&#34;color&#34;:{&#34;r&#34;:0.81176471710205078,&#34;g&#34;:0.40588235855102539,&#34;b&#34;:0.31176468729972839,&#34;a&#34;:1.0},&#34;position&#34;:0.57084661722183228},{&#34;color&#34;:{&#34;r&#34;:0.73617571592330933,&#34;g&#34;:0.37361878156661987,&#34;b&#34;:0.40118095278739929,&#34;a&#34;:1.0},&#34;position&#34;:0.62455421686172485},{&#34;color&#34;:{&#34;r&#34;:0.71147084236145020,&#34;g&#34;:0.36307400465011597,&#34;b&#34;:0.43040502071380615,&#34;a&#34;:1.0},&#34;position&#34;:0.64433890581130981},{&#34;color&#34;:{&#34;r&#34;:0.68530046939849854,&#34;g&#34;:0.35190373659133911,&#34;b&#34;:0.46136265993118286,&#34;a&#34;:1.0},&#34;position&#34;:0.66529721021652222},{&#34;color&#34;:{&#34;r&#34;:0.65098041296005249,&#34;g&#34;:0.33725491166114807,&#34;b&#34;:0.50196081399917603,&#34;a&#34;:1.0},&#34;position&#34;:0.69278216361999512},{&#34;color&#34;:{&#34;r&#34;:0.50057673454284668,&#34;g&#34;:0.37139561772346497,&#34;b&#34;:0.59146481752395630,&#34;a&#34;:1.0},&#34;position&#34;:0.750},{&#34;color&#34;:{&#34;r&#34;:0.39717417955398560,&#34;g&#34;:0.39486736059188843,&#34;b&#34;:0.65299886465072632,&#34;a&#34;:1.0},&#34;position&#34;:0.80288463830947876},{&#34;color&#34;:{&#34;r&#34;:0.011764706112444401,&#34;g&#34;:0.48235294222831726,&#34;b&#34;:0.88235294818878174,&#34;a&#34;:1.0},&#34;position&#34;:1.0}],&#34;stopsVar&#34;:[{&#34;color&#34;:{&#34;r&#34;:0.85490196943283081,&#34;g&#34;:0.32156863808631897,&#34;b&#34;:0.30588236451148987,&#34;a&#34;:1.0},&#34;position&#34;:0.091346152126789093},{&#34;color&#34;:{&#34;r&#34;:0.89803922176361084,&#34;g&#34;:0.34509804844856262,&#34;b&#34;:0.23921568691730499,&#34;a&#34;:1.0},&#34;position&#34;:0.21153846383094788},{&#34;color&#34;:{&#34;r&#34;:0.93943357467651367,&#34;g&#34;:0.41699346899986267,&#34;b&#34;:0.17385621368885040,&#34;a&#34;:1.0},&#34;position&#34;:0.44230768084526062},{&#34;color&#34;:{&#34;r&#34;:0.97254902124404907,&#34;g&#34;:0.47450980544090271,&#34;b&#34;:0.12156862765550613,&#34;a&#34;:1.0},&#34;position&#34;:0.48985883593559265},{&#34;color&#34;:{&#34;r&#34;:0.81176471710205078,&#34;g&#34;:0.40588235855102539,&#34;b&#34;:0.31176468729972839,&#34;a&#34;:1.0},&#34;position&#34;:0.57084661722183228},{&#34;color&#34;:{&#34;r&#34;:0.73617571592330933,&#34;g&#34;:0.37361878156661987,&#34;b&#34;:0.40118095278739929,&#34;a&#34;:1.0},&#34;position&#34;:0.62455421686172485},{&#34;color&#34;:{&#34;r&#34;:0.71147084236145020,&#34;g&#34;:0.36307400465011597,&#34;b&#34;:0.43040502071380615,&#34;a&#34;:1.0},&#34;position&#34;:0.64433890581130981},{&#34;color&#34;:{&#34;r&#34;:0.68530046939849854,&#34;g&#34;:0.35190373659133911,&#34;b&#34;:0.46136265993118286,&#34;a&#34;:1.0},&#34;position&#34;:0.66529721021652222},{&#34;color&#34;:{&#34;r&#34;:0.65098041296005249,&#34;g&#34;:0.33725491166114807,&#34;b&#34;:0.50196081399917603,&#34;a&#34;:1.0},&#34;position&#34;:0.69278216361999512},{&#34;color&#34;:{&#34;r&#34;:0.50057673454284668,&#34;g&#34;:0.37139561772346497,&#34;b&#34;:0.59146481752395630,&#34;a&#34;:1.0},&#34;position&#34;:0.750},{&#34;color&#34;:{&#34;r&#34;:0.39717417955398560,&#34;g&#34;:0.39486736059188843,&#34;b&#34;:0.65299886465072632,&#34;a&#34;:1.0},&#34;position&#34;:0.80288463830947876},{&#34;color&#34;:{&#34;r&#34;:0.011764706112444401,&#34;g&#34;:0.48235294222831726,&#34;b&#34;:0.88235294818878174,&#34;a&#34;:1.0},&#34;position&#34;:1.0}],&#34;transform&#34;:{&#34;m00&#34;:-206.81149291992188,&#34;m01&#34;:-49.929576873779297,&#34;m02&#34;:394.94549560546875,&#34;m10&#34;:49.478916168212891,&#34;m11&#34;:-176.95895385742188,&#34;m12&#34;:212.4182128906250},&#34;opacity&#34;:1.0,&#34;blendMode&#34;:&#34;NORMAL&#34;,&#34;visible&#34;:true}"/>
<path d="M138.027 105.004C117.631 105.004 104 92.2553 104 71.5969C104 50.6594 117.934 38.0039 138.128 38.0039C143.379 38.0039 149.538 38.6553 155.697 41.4469V52.4275C149.336 49.7289 144.287 48.9844 139.542 48.9844C126.214 48.9844 118.237 57.1733 118.237 71.4108C118.237 85.7414 126.113 93.8372 139.34 93.8372C145.095 93.8372 150.649 92.8136 156 90.3011V101.096C149.841 104.259 143.48 105.004 138.027 105.004Z" fill="#037BE1"/>
<path d="M77 104.004V39.0039H90V104.004H77Z" fill="#037BE1"/>
<path d="M0.999969 104.004L22.9043 39.0039H42.0957L64 104.004H49.5311L45.2105 90.0753H19.2871L14.866 104.004H0.999969ZM22.4019 79.861H41.9952L32.3493 48.9396H32.1483L22.4019 79.861Z" fill="#037BE1"/>
<path d="M163.302 116.019L163.33 116.067L169.89 126.836V116.019H171.853V130.383H169.716L169.687 130.335L162.845 118.978V130.383H160.883V116.019H163.302Z" fill="#8B8B8B" stroke="#8B8B8B" stroke-width="0.2"/>
<path d="M151.851 115.787C153.863 115.787 155.487 116.426 156.606 117.658C157.723 118.888 158.325 120.697 158.325 123.011V123.412C158.325 125.621 157.722 127.424 156.595 128.674C155.466 129.927 153.821 130.615 151.764 130.615C149.762 130.615 148.134 129.981 147.007 128.752C145.881 127.524 145.268 125.715 145.268 123.39V122.99C145.268 120.78 145.882 118.978 147.018 117.727C148.155 116.475 149.804 115.787 151.851 115.787ZM151.764 117.525C150.313 117.525 149.261 118.077 148.569 118.988C147.874 119.903 147.534 121.191 147.534 122.674V123.37C147.534 125.005 147.827 126.387 148.506 127.359C149.181 128.324 150.247 128.897 151.829 128.897C153.29 128.897 154.348 128.336 155.043 127.415C155.741 126.489 156.08 125.19 156.08 123.707V123.032C156.08 121.397 155.793 120.02 155.114 119.053C154.44 118.094 153.369 117.525 151.764 117.525Z" fill="#8B8B8B" stroke="#8B8B8B" stroke-width="0.2"/>
<path d="M142.687 116.019V130.383H140.572V116.019H142.687Z" fill="#8B8B8B" stroke="#8B8B8B" stroke-width="0.2"/>
<path d="M138.396 116.019V117.82H134.066V130.383H131.973V117.82H127.644V116.019H138.396Z" fill="#8B8B8B" stroke="#8B8B8B" stroke-width="0.2"/>
<path d="M126.396 118.347L126.261 118.299C125.048 117.859 123.994 117.567 122.553 117.567C121.277 117.567 120.181 117.931 119.403 118.733C118.624 119.536 118.15 120.794 118.15 122.611V123.37C118.15 125.109 118.48 126.474 119.202 127.402C119.921 128.326 121.042 128.835 122.662 128.835C124.403 128.835 125.496 128.356 126.428 127.936L126.57 127.873V129.668L126.518 129.696C125.477 130.275 124.089 130.615 122.379 130.615C120.412 130.615 118.784 130.029 117.648 128.824C116.513 127.619 115.883 125.81 115.883 123.39V122.906C115.883 120.336 116.64 118.551 117.881 117.41C119.121 116.27 120.829 115.787 122.705 115.787C124.241 115.787 125.433 116.084 126.343 116.579L126.396 116.607V118.347Z" fill="#8B8B8B" stroke="#8B8B8B" stroke-width="0.2"/>
<path d="M104.629 116.019V125.245C104.629 126.709 104.948 127.63 105.532 128.188C106.115 128.745 106.986 128.961 108.141 128.961C109.286 128.961 110.11 128.751 110.653 128.195C111.196 127.639 111.479 126.713 111.479 125.225V116.019H113.441V125.309C113.441 127.146 112.996 128.484 112.088 129.361C111.181 130.238 109.829 130.636 108.054 130.636C106.299 130.636 104.911 130.216 103.961 129.337C103.01 128.456 102.515 127.129 102.515 125.351V116.019H104.629Z" fill="#8B8B8B" stroke="#8B8B8B" stroke-width="0.2"/>
<path d="M94.7711 116.019C96.393 116.019 97.6436 116.363 98.4899 117.058C99.3397 117.756 99.7663 118.794 99.7663 120.145C99.7662 121.174 99.4999 121.977 99.0075 122.599C98.5289 123.203 97.8432 123.625 97.0036 123.923V123.931L100.818 130.232L100.91 130.383H98.4782L98.4489 130.334L94.9528 124.397H92.4997V130.383H90.3854V116.019H94.7711ZM92.4997 122.722H94.6628C95.7081 122.722 96.4234 122.517 96.8776 122.109C97.3292 121.704 97.5426 121.078 97.5426 120.187C97.5426 119.318 97.319 118.736 96.862 118.367C96.3996 117.994 95.6777 117.82 94.6403 117.82H92.4997V122.722Z" fill="#8B8B8B" stroke="#8B8B8B" stroke-width="0.2"/>
<path d="M88.2747 116.019V117.82H83.9446V130.383H81.8518V117.82H77.5227V116.019H88.2747Z" fill="#8B8B8B" stroke="#8B8B8B" stroke-width="0.2"/>
<path d="M72.7313 122.283C73.8129 122.622 74.7089 123.033 75.3329 123.668C75.961 124.306 76.3046 125.161 76.3046 126.363C76.3045 127.637 75.9228 128.71 75.0946 129.464C74.2677 130.216 73.0108 130.636 71.288 130.636C69.4239 130.636 68.0361 130.233 67.0409 129.697L66.9892 129.669V127.866L67.1337 127.938C68.2506 128.5 69.6492 128.855 71.1786 128.855C72.2318 128.855 72.9726 128.621 73.4481 128.217C73.9206 127.817 74.1463 127.237 74.1464 126.51C74.1464 125.863 73.999 125.417 73.6581 125.062C73.3116 124.701 72.7555 124.422 71.9101 124.138L70.3876 123.654H70.3866C69.3998 123.335 68.5919 122.912 68.0312 122.282C67.468 121.649 67.163 120.818 67.163 119.702C67.163 118.56 67.5642 117.577 68.3642 116.881C69.1626 116.186 70.3473 115.787 71.8974 115.787C73.6772 115.787 74.6931 116.171 75.5097 116.577L75.5653 116.604V118.379L75.4257 118.318C74.5645 117.943 73.4029 117.567 71.8319 117.567C71.0077 117.567 70.3742 117.754 69.9491 118.089C69.5274 118.42 69.2988 118.906 69.2987 119.533C69.2987 120.166 69.4064 120.602 69.6894 120.942C69.9751 121.286 70.4527 121.547 71.2313 121.799L72.7313 122.283Z" fill="#8B8B8B" stroke="#8B8B8B" stroke-width="0.2"/>
<path d="M56.1107 116.019L56.139 116.067L62.6986 126.836V116.019H64.6615V130.383H62.5248L62.4955 130.335L55.6537 118.978V130.383H53.6918V116.019H56.1107Z" fill="#8B8B8B" stroke="#8B8B8B" stroke-width="0.2"/>
<path d="M44.6596 115.787C46.6722 115.787 48.2957 116.426 49.4145 117.658C50.5321 118.888 51.1342 120.697 51.1342 123.011V123.412C51.1342 125.621 50.5314 127.424 49.4037 128.674C48.2748 129.927 46.6303 130.615 44.5727 130.615C42.5712 130.615 40.9428 129.981 39.8159 128.752C38.6899 127.524 38.0766 125.715 38.0766 123.39V122.99C38.0766 120.78 38.6908 118.978 39.8266 117.727C40.9635 116.475 42.6128 115.787 44.6596 115.787ZM44.5727 117.525C43.1218 117.525 42.0704 118.077 41.3784 118.988C40.6834 119.903 40.3432 121.191 40.3432 122.674V123.37C40.3432 125.005 40.6358 126.387 41.3149 127.359C41.9897 128.324 43.0558 128.897 44.6381 128.897C46.0994 128.897 47.157 128.336 47.852 127.415C48.5499 126.489 48.8891 125.19 48.8891 123.707V123.032C48.8891 121.397 48.6021 120.02 47.9233 119.053C47.2488 118.094 46.1776 117.525 44.5727 117.525Z" fill="#8B8B8B" stroke="#8B8B8B" stroke-width="0.2"/>
<path d="M36.4147 118.347L36.2799 118.299C35.0673 117.859 34.0134 117.567 32.5719 117.567C31.2962 117.567 30.1997 117.931 29.4215 118.733C28.6429 119.536 28.1686 120.794 28.1686 122.611V123.37C28.1686 125.109 28.4989 126.474 29.2213 127.402C29.9402 128.326 31.061 128.835 32.6813 128.835C34.4217 128.835 35.5152 128.356 36.4469 127.936L36.5885 127.873V129.668L36.5368 129.696C35.4959 130.275 34.1077 130.615 32.3981 130.615C30.431 130.615 28.8025 130.029 27.6666 128.824C26.5315 127.619 25.902 125.81 25.902 123.39V122.906C25.902 120.336 26.6587 118.551 27.9 117.41C29.1399 116.27 30.8482 115.787 32.7243 115.787C34.26 115.787 35.4522 116.084 36.362 116.579L36.4147 116.607V118.347Z" fill="#8B8B8B" stroke="#8B8B8B" stroke-width="0.2"/>
<path d="M17.6055 116.019V130.383H15.4912V116.019H17.6055Z" fill="#8B8B8B" stroke="#8B8B8B" stroke-width="0.2"/>
<path d="M8.24902 116.019L8.27344 116.083L13.5605 130.248L13.6104 130.383H11.3955L11.3711 130.318L9.91602 126.4H4.35449L2.92188 130.318L2.89746 130.383H0.855469L0.90625 130.248L6.2373 116.083L6.26074 116.019H8.24902ZM4.99414 124.618H9.25488L7.10254 118.806L4.99414 124.618Z" fill="#8B8B8B" stroke="#8B8B8B" stroke-width="0.2"/>
<path d="M103.816 146.659C104.897 146.998 105.793 147.41 106.417 148.044C107.045 148.683 107.389 149.538 107.389 150.739C107.389 152.014 107.007 153.087 106.179 153.84C105.352 154.592 104.095 155.013 102.372 155.013C100.508 155.013 99.1204 154.609 98.1252 154.073L98.0735 154.045V152.242L98.218 152.315C99.3349 152.876 100.733 153.232 102.263 153.232C103.316 153.232 104.057 152.997 104.532 152.594C105.005 152.193 105.231 151.613 105.231 150.887C105.231 150.24 105.083 149.794 104.742 149.439C104.396 149.078 103.84 148.798 102.994 148.515L101.472 148.03H101.471C100.484 147.712 99.6762 147.289 99.1155 146.658C98.5523 146.026 98.2473 145.194 98.2473 144.078C98.2473 142.937 98.6485 141.953 99.4485 141.257C100.247 140.562 101.432 140.163 102.982 140.163C104.762 140.163 105.777 140.547 106.594 140.953L106.65 140.981V142.755L106.51 142.695C105.649 142.319 104.487 141.944 102.916 141.944C102.092 141.944 101.459 142.131 101.033 142.465C100.612 142.797 100.383 143.283 100.383 143.909C100.383 144.542 100.491 144.978 100.774 145.319C101.059 145.662 101.537 145.924 102.316 146.175L103.816 146.659Z" fill="#8B8B8B" stroke="#8B8B8B" stroke-width="0.2"/>
<path d="M87.1951 140.395L87.2235 140.443L93.783 151.213V140.395H95.7459V154.759H93.6092L93.5799 154.712L86.7381 143.354V154.759H84.7762V140.395H87.1951Z" fill="#8B8B8B" stroke="#8B8B8B" stroke-width="0.2"/>
<path d="M75.744 140.163C77.7566 140.163 79.3801 140.803 80.4989 142.034C81.6165 143.265 82.2186 145.074 82.2186 147.388V147.788C82.2186 149.998 81.6158 151.8 80.4882 153.051C79.3592 154.303 77.7147 154.991 75.6571 154.991C73.6556 154.991 72.0272 154.357 70.9003 153.128C69.7744 151.9 69.161 150.092 69.161 147.767V147.366C69.161 145.156 69.7752 143.354 70.911 142.104C72.048 140.852 73.6973 140.163 75.744 140.163ZM75.6571 141.902C74.2062 141.902 73.1548 142.453 72.4628 143.364C71.7679 144.279 71.4277 145.567 71.4276 147.05V147.746C71.4277 149.381 71.7202 150.764 72.3993 151.736C73.0741 152.701 74.1402 153.274 75.7225 153.274C77.1838 153.274 78.2415 152.713 78.9364 151.791C79.6343 150.866 79.9735 149.566 79.9735 148.083V147.408C79.9735 145.773 79.6865 144.396 79.0077 143.43C78.3332 142.47 77.262 141.902 75.6571 141.902Z" fill="#8B8B8B" stroke="#8B8B8B" stroke-width="0.2"/>
<path d="M66.5799 140.395V154.759H64.4656V140.395H66.5799Z" fill="#8B8B8B" stroke="#8B8B8B" stroke-width="0.2"/>
<path d="M62.2895 140.395V142.197H57.9594V154.759H55.8666V142.197H51.5375V140.395H62.2895Z" fill="#8B8B8B" stroke="#8B8B8B" stroke-width="0.2"/>
<path d="M40.697 140.395V149.622C40.697 151.086 41.0162 152.007 41.5993 152.564C42.1832 153.122 43.0537 153.338 44.2087 153.338C45.3533 153.338 46.1781 153.127 46.7204 152.572C47.2637 152.015 47.5465 151.089 47.5466 149.601V140.395H49.5085V149.685C49.5085 151.523 49.0641 152.861 48.156 153.738C47.2485 154.614 45.8967 155.012 44.1218 155.012C42.367 155.012 40.9788 154.593 40.029 153.714C39.0778 152.833 38.5827 151.506 38.5827 149.727V140.395H40.697Z" fill="#8B8B8B" stroke="#8B8B8B" stroke-width="0.2"/>
<path d="M30.0334 140.395V152.979H36.4738V154.759H27.9191V140.395H30.0334Z" fill="#8B8B8B" stroke="#8B8B8B" stroke-width="0.2"/>
<path d="M18.8869 140.163C20.8995 140.163 22.523 140.803 23.6418 142.034C24.7595 143.265 25.3616 145.074 25.3616 147.388V147.788C25.3615 149.998 24.7588 151.8 23.6311 153.051C22.5022 154.303 20.8577 154.991 18.8 154.991C16.7985 154.991 15.1702 154.357 14.0432 153.128C12.9173 151.9 12.3039 150.092 12.3039 147.767V147.366C12.3039 145.156 12.9181 143.354 14.0539 142.104C15.1909 140.852 16.8402 140.163 18.8869 140.163ZM18.8 141.902C17.3491 141.902 16.2977 142.453 15.6057 143.364C14.9108 144.279 14.5706 145.567 14.5705 147.05V147.746C14.5706 149.381 14.8631 150.764 15.5422 151.736C16.2171 152.701 17.2831 153.274 18.8655 153.274C20.3267 153.274 21.3844 152.713 22.0793 151.791C22.7773 150.866 23.1164 149.566 23.1164 148.083V147.408C23.1164 145.773 22.8294 144.396 22.1506 143.43C21.4762 142.47 20.4049 141.902 18.8 141.902Z" fill="#8B8B8B" stroke="#8B8B8B" stroke-width="0.2"/>
<path d="M7.09951 146.659C8.18103 146.998 9.07703 147.41 9.70107 148.044C10.3292 148.683 10.6728 149.538 10.6728 150.739C10.6727 152.014 10.2909 153.087 9.46279 153.84C8.63588 154.592 7.37892 155.013 5.65615 155.013C3.79208 155.013 2.40422 154.609 1.40908 154.073L1.35732 154.045V152.242L1.50185 152.315C2.61873 152.876 4.01733 153.232 5.54678 153.232C6.59998 153.232 7.34078 152.997 7.81631 152.594C8.28879 152.193 8.51448 151.613 8.51455 150.887C8.51455 150.24 8.36718 149.794 8.02627 149.439C7.67979 149.078 7.12365 148.798 6.27822 148.515L4.75576 148.03H4.75478C3.76795 147.712 2.96004 147.289 2.39931 146.658C1.8362 146.026 1.53118 145.194 1.53115 144.078C1.53115 142.937 1.93234 141.953 2.73232 141.257C3.53075 140.562 4.7155 140.163 6.26553 140.163C8.04541 140.163 9.06129 140.547 9.87783 140.953L9.93349 140.981V142.755L9.79385 142.695C8.93263 142.319 7.77109 141.944 6.2001 141.944C5.37591 141.944 4.74241 142.131 4.31728 142.465C3.89555 142.797 3.66693 143.283 3.66689 143.909C3.66689 144.542 3.77455 144.978 4.05752 145.319C4.34329 145.662 4.82091 145.924 5.59951 146.175L7.09951 146.659Z" fill="#8B8B8B" stroke="#8B8B8B" stroke-width="0.2"/>
<path d="M371.671 13.9004C372.04 13.9004 372.362 13.9521 372.635 14.0586H372.634C372.91 14.1576 373.142 14.2996 373.324 14.4883H373.323C373.51 14.676 373.647 14.9031 373.734 15.168L373.794 15.3721C373.846 15.5805 373.871 15.8043 373.871 16.043C373.871 16.2447 373.835 16.4376 373.76 16.6202C373.694 16.7991 373.601 16.965 373.482 17.1172C373.363 17.2688 373.225 17.4068 373.068 17.5313H373.067C372.945 17.6268 372.817 17.7083 372.686 17.7784L374.277 20.8213L374.282 20.8301H374.281C374.301 20.8799 374.304 20.9356 374.28 20.9893L374.281 20.9903L374.279 20.9922C374.278 20.9937 374.278 20.9957 374.278 20.9971L374.277 20.9961C374.263 21.0261 374.243 21.054 374.212 21.0733C374.18 21.0934 374.144 21.0997 374.112 21.0997H373.621C373.557 21.0997 373.497 21.0846 373.444 21.0508C373.391 21.0172 373.351 20.9692 373.323 20.9122L373.322 20.9112C373.038 20.3189 372.802 19.8369 372.614 19.4659V19.4649C372.425 19.0876 372.277 18.7884 372.169 18.5674L371.899 18.0372C371.778 18.0603 371.663 18.0766 371.554 18.0821C371.433 18.0884 371.278 18.0953 371.088 18.1016H370.391V20.8672C370.391 20.9268 370.376 20.9907 370.329 21.0381C370.281 21.0854 370.218 21.0996 370.159 21.0997H369.733C369.673 21.0997 369.609 21.0856 369.562 21.0381C369.514 20.9907 369.5 20.9268 369.5 20.8672V14.1143L369.501 14.1065C369.51 14.0567 369.528 14.0056 369.567 13.9668L369.603 13.9395C369.635 13.9202 369.672 13.9141 369.706 13.9122V13.9112C369.708 13.9109 369.71 13.9115 369.712 13.9112C369.716 13.9111 369.72 13.9092 369.723 13.9092V13.9102C369.767 13.9043 369.821 13.9004 369.884 13.9004H371.671ZM370.391 17.3057H371.284C371.534 17.3057 371.761 17.2749 371.965 17.2149H371.966C372.177 17.1547 372.354 17.0682 372.5 16.9571C372.647 16.8454 372.76 16.714 372.841 16.5635C372.921 16.4089 372.962 16.236 372.962 16.043C372.962 15.7857 372.932 15.5736 372.873 15.4043L372.871 15.4004C372.82 15.2296 372.73 15.096 372.603 14.9961L372.599 14.9932C372.476 14.8869 372.309 14.8076 372.094 14.7598C371.877 14.7115 371.601 14.6866 371.265 14.6866H370.391V17.3057Z" fill="#919091" stroke="#919091" stroke-width="0.2"/>
<path d="M371.5 12.4004C374.317 12.4004 376.6 14.6834 376.6 17.5C376.6 20.3167 374.317 22.5997 371.5 22.5997C368.683 22.5997 366.4 20.3167 366.4 17.5C366.4 14.6834 368.683 12.4004 371.5 12.4004Z" stroke="#919091" stroke-width="0.8"/>
<defs>
<clipPath id="paint2_diamond_5599_17951_clip_path"><path d="M170.979 155.149C184.877 161.548 194.245 162.984 203.03 162.984C219.008 163.507 233.332 153.581 233.332 137.779C233.332 121.977 213.773 104.56 202.463 101.213L183.5 102.149C188.747 104.761 219.008 122.5 219.008 138.171C219.008 143.936 211.551 150.969 202.463 150.969C192.677 150.969 176.33 146.614 170.979 143.917V155.149Z"/></clipPath><linearGradient id="paint0_linear_5599_17951" x1="223.917" y1="69.2399" x2="205.748" y2="102.057" gradientUnits="userSpaceOnUse">
<stop stop-color="#D9D9D9"/>
<stop offset="1" stop-color="#737373"/>
</linearGradient>
<linearGradient id="paint1_linear_5599_17951" x1="225.883" y1="71.7449" x2="207.972" y2="104.388" gradientUnits="userSpaceOnUse">
<stop stop-color="#037BE1"/>
<stop offset="0.384615" stop-color="#795C9F"/>
<stop offset="0.441298" stop-color="#8B5793"/>
<stop offset="0.576923" stop-color="#A55183"/>
<stop offset="0.788462" stop-color="#C94F62"/>
<stop offset="1" stop-color="#DA5744"/>
</linearGradient>
<linearGradient id="paint2_diamond_5599_17951" x1="0" y1="0" x2="500" y2="500" gradientUnits="userSpaceOnUse">
<stop offset="0.0913462" stop-color="#DA524E"/>
<stop offset="0.211538" stop-color="#E5583D"/>
<stop offset="0.442308" stop-color="#F06A2C"/>
<stop offset="0.489859" stop-color="#F8791F"/>
<stop offset="0.570847" stop-color="#CF684F"/>
<stop offset="0.624554" stop-color="#BC5F66"/>
<stop offset="0.644339" stop-color="#B55D6E"/>
<stop offset="0.665297" stop-color="#AF5A76"/>
<stop offset="0.692782" stop-color="#A65680"/>
<stop offset="0.75" stop-color="#805F97"/>
<stop offset="0.802885" stop-color="#6565A7"/>
<stop offset="1" stop-color="#037BE1"/>
</linearGradient>
</defs>
</svg>
